<?xml version="1.0" standalone="no"?>
<!DOCTYPE svg PUBLIC "-//W3C//DTD SVG 20010904//EN"
 "http://www.w3.org/TR/2001/REC-SVG-20010904/DTD/svg10.dtd">
<svg version="1.0" xmlns="http://www.w3.org/2000/svg"
 width="267.000000pt" height="150.000000pt" viewBox="0 0 267.000000 150.000000"
 preserveAspectRatio="xMidYMid meet">

<g transform="translate(0.000000,150.000000) scale(0.100000,-0.100000)"
fill="#fff" stroke="none">
<path d="M5 1468 c-3 -13 -4 -347 -3 -743 l3 -720 1330 0 1330 0 3 720 c1 396
0 730 -3 743 l-5 22 -1325 0 -1325 0 -5 -22z m461 -485 c-3 -16 -8 -46 -12
-68 -11 -67 -18 -74 -61 -64 -21 5 -40 9 -43 9 -3 0 -6 -15 -5 -32 0 -32 1
-33 49 -36 l48 -3 -5 -33 c-3 -18 -12 -49 -21 -69 -15 -36 -16 -37 -69 -37
l-55 0 -7 -36 c-3 -20 -4 -39 0 -42 3 -4 33 -6 65 -5 51 2 60 -1 60 -15 -1
-25 -34 -95 -53 -111 -23 -19 -184 -6 -215 18 -22 16 -22 18 -7 48 11 23 130
465 135 501 0 1 45 2 101 2 l101 0 -6 -27z m261 5 c-2 -7 -43 -133 -91 -280
l-87 -268 -34 0 c-19 0 -35 4 -35 8 0 14 139 505 150 530 8 18 17 22 56 22 33
0 45 -4 41 -12z m1228 -8 c3 -5 -33 -129 -80 -275 -94 -290 -89 -281 -170
-283 -84 -3 -120 65 -91 171 37 131 100 212 162 205 l32 -4 22 81 c32 112 34
115 80 115 21 0 42 -4 45 -10z m-827 -30 c23 -6 42 -13 42 -16 0 -6 -158 -368
-185 -426 -19 -39 -44 -54 -104 -64 -38 -6 -40 -4 -65 35 -40 62 -36 70 36 73
l61 3 60 195 c32 107 64 201 69 208 6 7 18 10 27 8 9 -3 35 -10 59 -16z m1028
-33 c3 -8 0 -25 -5 -39 -8 -22 -16 -26 -50 -26 -46 -1 -47 2 -25 46 12 25 22
32 45 32 16 0 32 -6 35 -13z m-46 -92 c38 -19 60 -52 60 -88 0 -22 -65 -268
-75 -285 -1 -1 -45 -5 -97 -7 -85 -5 -96 -3 -113 15 -42 47 6 146 99 204 40
25 51 28 67 18 17 -11 19 -9 19 24 l0 37 -55 -7 c-53 -6 -55 -5 -55 17 0 67
82 107 150 72z m-792 -11 c14 -10 21 -22 17 -31 -3 -9 0 -22 6 -29 15 -18 5
-123 -17 -187 -22 -64 -81 -117 -132 -117 -58 0 -77 27 -76 104 0 85 27 165
74 225 34 43 46 51 73 51 18 0 43 -7 55 -16z m252 -18 c35 -1 35 -1 35 -46 l0
-45 -37 0 c-20 0 -40 -4 -45 -8 -4 -5 -29 -70 -54 -145 l-46 -137 -36 -3 c-25
-2 -39 1 -42 11 -5 10 63 221 117 366 7 20 13 22 41 16 17 -4 48 -8 67 -9z
m903 -15 c15 -6 27 -16 27 -23 0 -8 -24 -85 -53 -173 l-54 -160 -37 -3 c-70
-6 -70 -5 -21 138 25 72 45 132 45 135 0 3 -13 5 -29 5 -25 0 -31 -5 -41 -37
-7 -21 -28 -84 -47 -140 l-35 -103 -44 0 c-29 0 -44 4 -44 13 0 10 91 292 115
355 6 16 173 11 218 -7z"/>
<path d="M1749 695 c-53 -28 -95 -185 -50 -185 11 0 23 5 27 11 8 13 55 182
51 185 -1 1 -14 -4 -28 -11z"/>
<path d="M2017 585 c-43 -30 -47 -45 -12 -45 15 0 31 9 41 25 25 39 12 48 -29
20z"/>
<path d="M1219 682 c-25 -66 -37 -152 -21 -152 15 0 40 26 57 61 22 41 23 112
3 133 -15 15 -18 12 -39 -42z"/>
</g>
</svg>
